<svg width="50px" height="50px" viewBox="0 0 84 80" fill="none" xmlns="http://www.w3.org/2000/svg">
<path d="M9.54342 19.1667H9.65175C15.4642 19.1667 19.083 15.0001 19.083 9.79174C18.9747 4.46883 15.4642 0.416748 9.76217 0.416748C4.06009 0.416748 0.333008 4.46883 0.333008 9.79174C0.333008 15.0001 3.94967 19.1667 9.54342 19.1667ZM0.333008 25.4167H19.083V79.5834H0.333008V25.4167ZM83.6663 45.2084C83.6663 34.2771 74.8059 25.4167 63.8746 25.4167C57.5142 25.4167 51.8705 28.4292 48.2496 33.0917V25.4167H29.4997V79.5834H48.2496V48.3334C48.2496 43.7313 51.9809 40.0001 56.583 40.0001C61.1851 40.0001 64.9163 43.7313 64.9163 48.3334V79.5834H83.6663C83.6663 79.5834 83.6663 48.2396 83.6663 45.2084Z" fill="white"/>
</svg>

